PathFileType	4	(X/Y/Z)	Patient4_TMGait_0pt6_02_left_21.trc.trc
DataRate	CameraRate	NumFrames	NumMarkers	Units	OrigDataRate	OrigDataStartFrame	OrigNumFrames
85.365853658537	85.365853658537	6	33	mm	85.365853658537	36	       141
Frame#	Time	Sacral			L.Shoulder			Chest			R.Shoulder			Neck			R.ASIS			L.ASIS			R.Thigh.Superior			R.Thigh.Lateral			R.Thigh.Inferior			R.Patella			L.Thigh.Superior			L.Thigh.Lateral			L.Thigh.Inferior			L.Patella			L.Shank.Superior			L.Shank.Lateral			L.Shank.Inferior			R.Shank.Superior			R.Shank.Lateral			R.Shank.Inferior			R.Heel			R.Midfoot.Superior			R.Midfoot.Lateral			R.Toe			L.Heel			L.Midfoot.Lateral			L.Midfoot.Superior			L.Toe			L.Elbow			L.Wrist			R.Elbow			R.Wrist			
		X1	Y1	Z1	X2	Y2	Z2	X3	Y3	Z3	X4	Y4	Z4	X5	Y5	Z5	X6	Y6	Z6	X7	Y7	Z7	X8	Y8	Z8	X9	Y9	Z9	X10	Y10	Z10	X11	Y11	Z11	X12	Y12	Z12	X13	Y13	Z13	X14	Y14	Z14	X15	Y15	Z15	X16	Y16	Z16	X17	Y17	Z17	X18	Y18	Z18	X19	Y19	Z19	X20	Y20	Z20	X21	Y21	Z21	X22	Y22	Z22	X23	Y23	Z23	X24	Y24	Z24	X25	Y25	Z25	X26	Y26	Z26	X27	Y27	Z27	X28	Y28	Z28	X29	Y29	Z29	X30	Y30	Z30	X31	Y31	Z31	X32	Y32	Z32	X33	Y33	Z33	

36	26.200000000000	807.310155583439	1009.811971889955	466.779155524812	951.310322301652	1431.813458398757	270.667801770649	1078.263409155629	1362.096450955002	412.946611881946	1022.746100360733	1439.884246053568	595.429518355788	969.913706952030	1493.726454926073	420.942544310157	1038.150391615711	937.117325720208	561.881626165155	1004.544703372504	956.471845635291	289.484192394960	1044.334031221681	724.377168333894	538.964633981739	947.459535014819	626.753156523009	603.345168048545	1012.873476630681	560.427738018403	524.243732082830	994.558153535216	459.779140947824	537.148995299107	1074.767224466351	765.012189422838	319.688524297470	999.977037892650	638.296132769906	261.790700363292	1099.436627745723	571.946742910656	318.110483627472	1109.761465600480	501.704905218072	325.092212638468	1089.248428025283	427.807531508848	318.386924346515	1007.840168870235	304.754250328464	273.527465897936	1078.234157175638	199.535549613016	338.363340093087	929.443329099338	388.670768737932	543.518250036139	822.487943874713	324.265980799206	608.652728291172	822.929727732100	218.369958855183	549.426191773698	635.106121240947	103.049632498745	525.336181706883	815.619583725294	105.758739755455	556.475752660783	714.283333771773	66.525435306545	593.722894637235	914.527967332427	35.287212682861	574.912479481358	968.589115765553	38.503290918806	388.198287898812	1037.515949075427	35.670729638178	303.167352670331	1120.424142434041	98.585310635728	324.173946071443	1247.609116683365	49.913947694779	288.922134774699	830.409779297154	1091.773291289714	184.673219209864	807.930635335661	833.119864580954	194.477942926697	1152.043910233002	1123.323554972057	711.137809254276	1385.186721370472	1179.868282599847	633.548575935669	
37	26.211714285714	806.779604312725	1011.201091301253	463.814567917942	952.200616116853	1433.099324626834	268.137417445022	1078.232864069152	1363.463642606916	411.251751629500	1021.560423313620	1441.436095611685	593.269869885213	969.534058564548	1495.001681047619	418.545053966249	1037.146731373314	938.524071023253	559.866868122525	1004.850384054914	957.761441718588	287.553909830796	1047.894174741214	726.420777211772	537.308498306848	953.519035543502	626.886699939988	601.633428218236	1021.200064409882	561.522075368941	522.924883325549	1004.086854422646	459.009289093525	537.117213174144	1073.260088648606	764.359197206206	316.630171856143	995.787890096995	638.496439560061	260.356083376476	1094.433661009114	571.040280858503	316.549584071294	1103.822993739004	501.221193235195	324.303387521011	1083.293349320972	427.569737375134	317.520492710868	1001.607589064280	304.690839625932	272.849090084138	1071.520997808058	199.432949600395	338.106944046496	936.270115114476	389.086161461564	543.179204098441	826.803076495514	328.776842580879	607.896202893305	824.530184036843	222.370210516427	549.804150704712	633.123319620818	114.717117741062	525.784352325155	813.292449817641	108.377515614835	557.015350448631	710.276949060324	73.942002161811	593.957307918060	907.859883215734	34.381816844548	574.949164616133	961.512734650291	38.466181400513	388.100501777063	1030.417483901323	35.584191785403	303.052624887952	1113.265751076136	98.553606859048	324.046539127391	1240.513623140610	50.028084803645	288.784524831190	837.288447068623	1090.765076832520	180.511649068070	821.993857799460	831.561598628524	189.035059826007	1142.824461992731	1120.810350142133	709.084310491649	1379.428875961256	1165.770687184158	633.863333442788	
38	26.223428571429	806.081122030895	1012.319344100147	460.905367710220	953.222292165915	1434.151180189255	265.619870421395	1078.149257344887	1364.584234939342	409.711428490335	1020.129207872920	1442.724118710145	591.204858776749	969.099763838378	1496.057223718038	416.189274511168	1035.994445218002	939.720597020700	558.072973124320	1005.046391327643	958.831321391938	285.826424721236	1051.862163012272	728.582874436513	535.671284291483	960.307038394017	626.961830974118	599.927334515672	1030.289564169386	562.768906208466	521.546212442623	1014.436906236498	458.462322129818	536.801180212384	1071.475643293818	763.449807214361	313.854163624979	991.624156752597	638.638023763137	258.918350402386	1089.346646464938	570.117025005699	315.195111079847	1097.791219989341	500.674333194753	323.538926475963	1077.262081826405	427.271388403641	316.640837262207	995.319190379566	304.544215934854	272.179008386828	1064.772009627699	199.268297778621	337.857199028503	944.048831639537	389.667889823128	542.662393516302	832.201983271040	333.594093223399	607.009624797187	826.967308563665	226.827290764383	550.014655845132	632.197703777468	127.533874475805	526.125837895713	811.514016102385	111.619633869062	557.424096404044	706.983233673087	82.474147384098	594.150890823289	901.372635037150	33.356627353165	575.067495578145	954.398130427938	38.412157215185	388.039615528906	1023.285042654212	35.477553692776	302.968354007276	1106.108193982328	98.457435215886	323.973476575549	1233.405999393827	50.018384668491	288.701410342712	844.568357740474	1089.655288031057	176.091272196033	837.038439345572	830.070147338188	183.381960116238	1133.093448755754	1118.203767465120	707.072797785761	1372.768605569368	1150.582830526456	634.322606752695	
39	26.235142857143	805.210934209000	1013.117078132011	458.091465260247	954.351470553358	1434.922857077638	263.145969361764	1078.005235103838	1365.412314727745	408.344044755093	1018.469401433305	1443.699905935409	589.264126044498	968.623772382490	1496.865329691862	413.901797617526	1034.712516944651	940.665500019780	556.501750401104	1005.098467648193	959.669977036841	284.278385073713	1056.129657453191	730.869778738853	534.009367824505	967.723329945815	627.045213047575	598.224567798501	1039.965186638671	564.224235194644	520.076449088436	1025.466499188048	458.215247252660	536.164547801819	1069.443877647389	762.375318440785	311.437085128370	987.632728810890	638.757873753424	257.438922029117	1084.306726045073	569.222028699471	314.017380081145	1091.802121115347	500.082275158250	322.758851544051	1071.278620600369	426.916270885881	315.736840500909	989.095485875182	304.333405375713	271.456198000825	1058.048795267819	199.046991789518	337.596642884920	952.667127721639	390.459558834211	541.934267079583	838.615193417075	338.691695723420	605.979868872982	830.225602040449	231.728859010744	550.026048655647	632.420376997669	141.303968099169	526.317275368405	810.353510882026	115.524227170543	557.681629603326	704.530263655369	92.031898574784	594.274569688489	895.211356697807	32.300025393013	575.273971416593	947.269985434808	38.349497588180	388.002480107823	1016.141954830015	35.360438527739	302.899530131443	1098.971496868257	98.313718522921	323.936699557827	1226.305743182019	49.907224181645	288.657294539073	852.261034890374	1088.415823862968	171.447764522351	853.005336051928	828.661053126654	177.566924544373	1122.910960193723	1115.479685811601	705.135872462599	1365.111746259616	1134.394143646085	634.943337713465	
40	26.246857142857	804.173104548694	1013.577234456639	455.403128417118	955.549554739116	1435.398711188228	260.753365117573	1077.791947362039	1365.932285124893	407.162267895195	1016.608772230404	1444.342236667241	587.476792659227	968.120409245035	1497.422772194674	411.712952028860	1033.322572864092	941.345384545290	555.136956280605	1004.983958704480	960.291221813836	282.875026736800	1060.565436775057	733.295412239492	532.279840018635	975.634428589465	627.220826509820	596.528188468893	1050.021911903523	565.953395656632	518.492893664500	1037.017385588863	458.348840490464	535.206679320094	1067.216495960366	761.233824917888	309.399282317078	983.904376817586	638.877495866639	255.898115747645	1079.418771080261	568.383641553236	312.963470440276	1085.972553272338	499.461675849935	321.932530640264	1065.444781092117	426.510094363982	314.803895351037	983.026761245898	304.080139438811	270.646113530094	1051.399068361301	198.777218786745	337.313658703203	961.990824664575	391.508974817154	540.985961170557	845.941311095682	344.031522930583	604.805729311752	834.288512318533	237.035708230574	549.823079517470	633.859051025414	155.732927496229	526.317771398594	809.910773759214	120.078611179942	557.778097139512	703.054268157871	102.430376101808	594.296384447738	889.578633803683	31.346604684274	575.559503897706	940.148034255271	38.285050214889	387.976698992290	1009.006263003755	35.240843831446	302.833816809391	1091.868284211419	98.140503636816	323.918679717539	1219.226165595070	49.721227700911	288.635932338512	860.383644313253	1087.044203236405	166.629564094374	869.830111174443	827.372102325759	171.642222903271	1112.331409805675	1112.630507216905	703.302696096924	1356.371294402139	1117.292427560172	635.747644857456	
41	26.258571428571	802.980062068574	1013.717203396806	452.857994760076	956.768084718193	1435.594398318600	258.482762427327	1077.500625675075	1366.159757966517	406.171762064010	1014.582401773289	1444.657708566272	585.868517124061	967.603331387245	1497.749351931130	409.653587397935	1031.846760916691	941.774576244354	553.945547219477	1004.695669670440	960.729232009876	281.577451066912	1065.030505339699	735.877693805301	530.447481203972	983.883324567500	627.579270822091	594.845283621652	1060.244828174142	568.022122617860	516.785206329874	1048.922637444750	458.939994297811	533.957514349748	1064.863009518175	760.112674836844	307.705561375227	980.469794920764	639.002966655988	254.298662337434	1074.752287386949	567.612388052362	311.970533124815	1080.388742426370	498.826052334723	321.042532868599	1059.831047879032	426.059204795255	313.843922581297	977.164226788654	303.805967776027	269.745634214377	1044.853630605644	198.468083361761	337.003363495355	971.875490906987	392.862754996924	539.832350192759	854.058014844476	349.558518993896	603.498193710630	839.142988917972	242.675899617526	549.407198486860	636.552390733836	170.433946632576	526.096787128465	810.315761376637	125.211009406082	557.713818350818	702.695181641441	113.390528336369	594.186655903500	884.739041086698	30.665157566122	575.897575217018	933.045010268405	38.224045961445	387.951864828475	1001.889347723745	35.124914907914	302.762927815532	1084.803768722801	97.954067050703	323.905511300529	1212.173850009188	49.486297743508	288.623103658422	868.952836939281	1085.568106868141	161.695790786593	887.441014805194	826.266732880044	165.663817921530	1101.405671200699	1109.671810884356	701.596938709204	1346.464136860549	1099.365765459160	636.761382295772	
